<svg xmlns="http://www.w3.org/2000/svg" viewBox="0 0 900 560" role="img" aria-label="Самолет в небе">
  <defs>
    <linearGradient id="sky" x1="0" y1="0" x2="1" y2="1">
      <stop offset="0%" stop-color="#b9ddff"/>
      <stop offset="55%" stop-color="#e7f4ff"/>
      <stop offset="100%" stop-color="#fff7e6"/>
    </linearGradient>
    <linearGradient id="plane" x1="0" y1="0" x2="1" y2="1">
      <stop offset="0%" stop-color="#ffffff"/>
      <stop offset="100%" stop-color="#dbe9f7"/>
    </linearGradient>
    <filter id="softShadow" x="-20%" y="-20%" width="140%" height="140%">
      <feDropShadow dx="0" dy="18" stdDeviation="18" flood-color="#244766" flood-opacity="0.18"/>
    </filter>
  </defs>
  <rect width="900" height="560" rx="36" fill="url(#sky)"/>
  <circle cx="725" cy="95" r="54" fill="#ffd27a" opacity="0.9"/>
  <g fill="#ffffff" opacity="0.88">
    <ellipse cx="170" cy="126" rx="92" ry="30"/>
    <ellipse cx="224" cy="120" rx="64" ry="24"/>
    <ellipse cx="106" cy="118" rx="48" ry="22"/>
    <ellipse cx="724" cy="228" rx="96" ry="32"/>
    <ellipse cx="780" cy="220" rx="64" ry="24"/>
    <ellipse cx="650" cy="218" rx="50" ry="22"/>
    <ellipse cx="250" cy="420" rx="76" ry="26"/>
    <ellipse cx="306" cy="414" rx="48" ry="19"/>
  </g>
  <path d="M108 357 C255 284 377 252 560 238" fill="none" stroke="#ffffff" stroke-width="10" stroke-linecap="round" stroke-dasharray="2 26" opacity="0.9"/>
  <g filter="url(#softShadow)" transform="translate(204 152) rotate(-9 260 150)">
    <path d="M58 188 L602 86 C643 78 671 84 680 101 C688 118 663 139 621 147 L74 252 C50 257 30 249 27 233 C25 218 36 196 58 188Z" fill="url(#plane)"/>
    <path d="M306 143 L180 23 C170 14 176 0 191 5 L459 115Z" fill="#f6fbff"/>
    <path d="M352 173 L230 334 C221 346 228 359 243 351 L510 149Z" fill="#eaf4ff"/>
    <path d="M588 92 L706 22 C718 15 731 22 725 35 L660 124Z" fill="#f6fbff"/>
    <path d="M111 197 L38 152 C27 145 18 153 25 164 L78 239Z" fill="#e9f4ff"/>
    <g fill="#7bb4df">
      <circle cx="460" cy="119" r="10"/>
      <circle cx="500" cy="111" r="10"/>
      <circle cx="540" cy="104" r="10"/>
      <circle cx="580" cy="96" r="10"/>
    </g>
    <path d="M74 229 L612 126" fill="none" stroke="#c3d8ec" stroke-width="5" stroke-linecap="round" opacity="0.7"/>
  </g>
  <g transform="translate(560 384)" opacity="0.95">
    <rect x="0" y="34" width="78" height="58" rx="9" fill="#2f6f9f"/>
    <rect x="14" y="16" width="50" height="26" rx="8" fill="#d8892d"/>
    <rect x="18" y="48" width="15" height="15" rx="3" fill="#e7f4ff"/>
    <rect x="45" y="48" width="15" height="15" rx="3" fill="#e7f4ff"/>
    <path d="M-68 92 H160" stroke="#ffffff" stroke-width="8" stroke-linecap="round" opacity="0.78"/>
  </g>
</svg>
